Coordinates
version=1
nRows=60
nColumns=12
inDegrees=yes

Units are S.I. units (second, meters, Newtons, ...)
Angles are in degrees

endheader
time	SC_y	SC_z	SC_x	AC_y	AC_z	AC_x	GH_y	GH_z	GH_yy	EL_x	PS_y
       0.0              -27.79        0.09205          24.45          60.78         -9.825         0.1564         -142.1         -8.553         -103.3          53.22          149.4
   0.04373               -27.8        0.09527          24.45          60.78         -9.823         0.1539         -142.0         -8.548         -103.3          53.22          149.4
   0.08745               -27.8        0.09869          24.46          60.78         -9.821         0.1513         -142.0         -8.543         -103.3          53.23          149.4
    0.1312              -27.81         0.1023          24.46          60.78         -9.819         0.1484         -142.0         -8.538         -103.3          53.24          149.4
    0.1749              -27.81         0.1062          24.46          60.78         -9.817         0.1454         -142.0         -8.532         -103.3          53.24          149.3
    0.2186              -27.82         0.1103          24.46          60.78         -9.815         0.1422         -141.9         -8.526         -103.2          53.25          149.3
    0.2624              -27.82         0.1147          24.46          60.78         -9.812         0.1387         -141.9         -8.519         -103.2          53.25          149.3
    0.3061              -27.83         0.1195          24.47          60.78         -9.809          0.135         -141.9         -8.512         -103.2          53.26          149.3
    0.3498              -27.84         0.1245          24.47          60.78         -9.807         0.1311         -141.8         -8.505         -103.2          53.27          149.3
    0.3935              -27.84         0.1299          24.47          60.78         -9.804         0.1269         -141.8         -8.497         -103.2          53.28          149.2
    0.4373              -27.85         0.1357          24.47          60.78           -9.8         0.1223         -141.8         -8.489         -103.2          53.29          149.2
     0.481              -27.86          0.142          24.48          60.78         -9.797         0.1175         -141.7          -8.48         -103.1           53.3          149.2
    0.5247              -27.87         0.1487          24.48          60.79         -9.793         0.1122         -141.7          -8.47         -103.1          53.31          149.2
    0.5685              -27.88          0.156          24.48          60.79         -9.789         0.1065         -141.6         -8.459         -103.1          53.32          149.1
    0.6122              -27.89         0.1639          24.49          60.79         -9.785         0.1003         -141.6         -8.447         -103.1          53.33          149.1
    0.6559               -27.9         0.1725          24.49          60.79          -9.78        0.09366         -141.5         -8.435         -103.1          53.34          149.1
    0.6996              -27.92         0.1818           24.5          60.79         -9.775         0.0864         -141.4         -8.421         -103.0          53.36          149.0
    0.7434              -27.93         0.1919           24.5          60.79         -9.769        0.07849         -141.4         -8.407         -103.0          53.37          149.0
    0.7871              -27.95          0.203          24.51          60.79         -9.763        0.06986         -141.3          -8.39         -103.0          53.39          148.9
    0.8308              -27.96         0.2151          24.51          60.79         -9.756        0.06041         -141.2         -8.373         -102.9          53.41          148.9
    0.8745              -27.98         0.2284          24.52           60.8         -9.749        0.05003         -141.1         -8.353         -102.9          53.43          148.8
    0.9183               -28.0          0.243          24.53           60.8          -9.74         0.0386         -141.0         -8.332         -102.9          53.45          148.7
     0.962              -28.02         0.2591          24.53           60.8         -9.731        0.02599         -140.9         -8.308         -102.8          53.48          148.7
     1.006              -28.05         0.2771          24.54           60.8         -9.721        0.01201         -140.8         -8.282         -102.8           53.5          148.6
     1.049              -28.08          0.297          24.55           60.8          -9.71      -0.003533         -140.6         -8.253         -102.7          53.54          148.5
     1.093              -28.11         0.3192          24.56          60.81         -9.698       -0.02087         -140.5          -8.22         -102.6          53.57          148.4
     1.137              -28.14         0.3441          24.57          60.81         -9.684        -0.0403         -140.3         -8.184         -102.6          53.61          148.3
     1.181              -28.18          0.372          24.59          60.81         -9.668       -0.06215         -140.1         -8.143         -102.5          53.65          148.2
     1.224              -28.22         0.4037           24.6          60.82          -9.65       -0.08685         -139.9         -8.097         -102.4           53.7          148.0
     1.268              -28.27         0.4396          24.62          60.82          -9.63        -0.1149         -139.6         -8.044         -102.3          53.76          147.9
     1.312              -28.33         0.4806          24.64          60.83         -9.607        -0.1469         -139.4         -7.984         -102.2          53.82          147.7
     1.356               -28.4         0.5276          24.66          60.84         -9.581        -0.1836         -139.0         -7.916         -102.0          53.89          147.5
     1.399              -28.47         0.5819          24.69          60.84         -9.551         -0.226         -138.7         -7.836         -101.9          53.98          147.3
     1.443              -28.56          0.645          24.72          60.85         -9.515        -0.2753         -138.2         -7.744         -101.7          54.07          147.0
     1.487              -28.66         0.7189          24.76          60.86         -9.474        -0.3329         -137.7         -7.636         -101.5          54.19          146.7
      1.53              -28.78         0.8059           24.8          60.87         -9.425        -0.4009         -137.1         -7.509         -101.2          54.32          146.3
     1.574              -28.93         0.9094          24.85          60.89         -9.368        -0.4816         -136.4         -7.357         -100.9          54.48          145.8
     1.618               -29.1          1.033          24.91           60.9         -9.298        -0.5784         -135.5         -7.176         -100.5          54.67          145.3
     1.662              -29.31          1.183          24.98          60.92         -9.214        -0.6955         -134.5         -6.957         -100.1           54.9          144.7
     1.705              -29.56          1.367          25.07          60.95         -9.112        -0.8386         -133.2         -6.689         -99.56          55.19          143.9
     1.749              -29.88          1.593          25.18          60.98         -8.985         -1.015         -131.6         -6.358          -98.9          55.53          142.9
     1.793              -30.27          1.875          25.32          61.02         -8.828         -1.235         -129.7         -5.945         -98.08          55.97          141.6
     1.837              -30.77           2.23          25.49          61.06         -8.629         -1.513         -127.2         -5.426         -97.03          56.52          140.1
      1.88              -31.39          2.682          25.71          61.12         -8.376         -1.865         -124.1         -4.765         -95.71          57.21          138.1
     1.924               -32.2           3.26          25.99           61.2         -8.053         -2.317         -120.0          -3.92         -94.02          58.11          135.6
     1.968              -33.23          4.002          26.34           61.3         -7.638         -2.896         -114.9         -2.835         -91.85          59.25          132.4
     2.011              -34.55          4.949           26.8          61.42         -7.108         -3.635         -108.3         -1.449         -89.07          60.71          128.3
     2.055               -36.2          6.141          27.38          61.58         -6.442         -4.566         -100.0         0.2931         -85.59          62.55          123.1
     2.099              -38.22          7.593          28.08          61.78          -5.63         -5.699         -89.91          2.416         -81.33          64.79          116.8
     2.143              -40.57          9.276           28.9           62.0         -4.688         -7.013         -78.21          4.878         -76.41          67.39          109.4
     2.186               -43.1           11.1          29.78          62.24         -3.669         -8.436         -65.54          7.543         -71.07           70.2          101.5
      2.23              -45.64          12.92          30.66          62.49          -2.65         -9.858         -52.86          10.21         -65.74          73.01          93.56
     2.274              -47.98           14.6          31.47          62.71         -1.708         -11.17         -41.16          12.67         -60.81          75.61          86.24
     2.318               -50.0          16.06          32.18           62.9        -0.8964         -12.31         -31.07          14.79         -56.56          77.85          79.92
     2.361              -51.65          17.25          32.75          63.06          -0.23         -13.24         -22.78          16.53         -53.07          79.68          74.73
     2.405              -52.97          18.19          33.21          63.19            0.3         -13.98         -16.19          17.92          -50.3          81.15           70.6
     2.449               -54.0          18.94          33.57          63.29         0.7149         -14.55         -11.03          19.01         -48.12          82.29          67.37
     2.492              -54.81          19.51          33.85          63.37          1.038         -15.01         -7.014          19.85         -46.43          83.18          64.86
     2.536              -55.44          19.97          34.07          63.43          1.291         -15.36         -3.874          20.51         -45.11          83.88          62.89
      2.58              -55.93          20.32          34.24          63.47           1.49         -15.64         -1.403          21.03         -44.07          84.43          61.35
